<svg width="35" height="35" viewBox="0 0 35 35" fill="none" xmlns="http://www.w3.org/2000/svg">
<g clip-path="url(#clip0_101_77)">
<path fill-rule="evenodd" clip-rule="evenodd" d="M17.5 31.7188C18.0031 31.7188 19.3441 31.2244 20.7528 28.4069C21.4222 27.0681 21.9844 25.41 22.3759 23.5156H12.6241C13.0156 25.41 13.5778 27.0681 14.2472 28.4069C15.6559 31.2244 16.9969 31.7188 17.5 31.7188ZM12.1494 20.2344C11.9913 18.4149 11.9913 16.5851 12.1494 14.7656H22.8506C23.0086 16.5851 23.0086 18.4149 22.8506 20.2344H12.1494ZM25.7184 23.5156C25.2284 26.1931 24.4212 28.5644 23.3866 30.4456C26.4683 29.0394 28.9495 26.5831 30.3866 23.5156H25.7184ZM31.4563 20.2344H26.1406C26.2831 18.4142 26.2831 16.5858 26.1406 14.7656H31.4541C31.8061 16.5715 31.8061 18.4285 31.4541 20.2344H31.4563ZM8.85719 20.2344H3.54375C3.19171 18.4285 3.19171 16.5715 3.54375 14.7656H8.85938C8.71669 16.5857 8.71669 18.4143 8.85938 20.2344H8.85719ZM4.61344 23.5156H9.28156C9.77156 26.1931 10.5787 28.5644 11.6134 30.4456C8.53171 29.0394 6.05053 26.5831 4.61344 23.5156ZM12.6241 11.4844H22.3759C21.9844 9.59 21.4222 7.93187 20.7528 6.59312C19.3441 3.77562 18.0031 3.28125 17.5 3.28125C16.9969 3.28125 15.6559 3.77562 14.2472 6.59312C13.5778 7.93187 13.0156 9.59 12.6241 11.4844ZM25.7184 11.4844H30.3866C28.9493 8.41704 26.4682 5.96073 23.3866 4.55438C24.4212 6.43563 25.2284 8.80688 25.7184 11.4844ZM11.6156 4.55438C10.5809 6.43563 9.77375 8.80688 9.28375 11.4844H4.61344C6.05053 8.41693 8.53389 5.96057 11.6156 4.55438ZM17.5 0C22.1413 0 26.5925 1.84374 29.8744 5.12563C33.1563 8.40752 35 12.8587 35 17.5C35 22.1413 33.1563 26.5925 29.8744 29.8744C26.5925 33.1563 22.1413 35 17.5 35C12.8587 35 8.40752 33.1563 5.12563 29.8744C1.84374 26.5925 0 22.1413 0 17.5C0 12.8587 1.84374 8.40752 5.12563 5.12563C8.40752 1.84374 12.8587 0 17.5 0Z" fill="#333333"/>
</g>
<defs>
<clipPath id="clip0_101_77">
<rect width="35" height="35" fill="white"/>
</clipPath>
</defs>
</svg>
