<svg width="55" height="55" viewBox="0 0 55 55" fill="none" xmlns="http://www.w3.org/2000/svg">
<path d="M53.2812 24.0625H50.875C49.5 19.9375 45.7188 17.1875 41.25 17.1875C36.7812 17.1875 33 20.2812 31.625 24.4062C30.5938 23.0312 29.2188 22.3438 27.5 22.3438C25.7812 22.3438 24.4062 23.0312 23.375 24.4062C22 20.2812 18.2188 17.1875 13.75 17.1875C9.28125 17.1875 5.5 20.2812 4.125 24.0625H1.71875C0.6875 24.0625 0 24.75 0 25.7812C0 26.8125 0.6875 27.5 1.71875 27.5H3.4375C3.4375 33.3438 7.90625 37.8125 13.75 37.8125C18.9062 37.8125 23.0312 34.0312 24.0625 29.2188C25.0938 29.2188 25.7812 28.5312 25.7812 27.5C25.7812 26.4688 26.4688 25.7812 27.5 25.7812C28.5312 25.7812 29.2188 26.4688 29.2188 27.5C29.2188 28.5312 29.9062 29.2188 30.9375 29.2188C31.625 34.0312 36.0938 37.8125 41.25 37.8125C47.0938 37.8125 51.5625 33.3438 51.5625 27.5H53.2812C54.3125 27.5 55 26.8125 55 25.7812C55 24.75 54.3125 24.0625 53.2812 24.0625ZM13.75 34.375C9.96875 34.375 6.875 31.2812 6.875 27.5C6.875 23.7188 9.96875 20.625 13.75 20.625C17.5312 20.625 20.625 23.7188 20.625 27.5C20.625 31.2812 17.5312 34.375 13.75 34.375ZM41.25 34.375C37.4688 34.375 34.375 31.2812 34.375 27.5C34.375 23.7188 37.4688 20.625 41.25 20.625C45.0312 20.625 48.125 23.7188 48.125 27.5C48.125 31.2812 45.0312 34.375 41.25 34.375Z" fill="#6C6C6C"/>
</svg>
