<svg width="20" height="20" viewBox="0 0 20 20" fill="none" xmlns="http://www.w3.org/2000/svg">
<g id="ep:arrow-up">
<path id="Vector" d="M13.2749 9.54748L6.30862 2.90998C6.19239 2.79918 6.03796 2.73737 5.87737 2.73737C5.71679 2.73737 5.56236 2.79918 5.44613 2.90998L5.43862 2.91748C5.38208 2.9712 5.33706 3.03586 5.30629 3.10753C5.27552 3.17919 5.25966 3.25637 5.25966 3.33436C5.25966 3.41235 5.27552 3.48953 5.30629 3.56119C5.33706 3.63286 5.38208 3.69752 5.43862 3.75123L11.9986 10.0012L5.43862 16.2487C5.38208 16.3025 5.33706 16.3671 5.30629 16.4388C5.27552 16.5104 5.25966 16.5876 5.25966 16.6656C5.25966 16.7436 5.27552 16.8208 5.30629 16.8924C5.33706 16.9641 5.38208 17.0288 5.43862 17.0825L5.44612 17.09C5.56236 17.2008 5.71679 17.2626 5.87737 17.2626C6.03796 17.2626 6.19239 17.2008 6.30862 17.09L13.2749 10.4525C13.3361 10.3941 13.3849 10.3239 13.4182 10.2461C13.4516 10.1683 13.4687 10.0846 13.4687 9.99998C13.4687 9.91536 13.4516 9.83162 13.4182 9.75384C13.3849 9.67606 13.3361 9.60586 13.2749 9.54748Z" fill="#F8F8F8"/>
</g>
</svg>
