<svg width="100" height="100" viewBox="0 0 100 100" fill="none" xmlns="http://www.w3.org/2000/svg">
<g id="zondicons:play-outline" clip-path="url(#clip0_435_161)">
<circle id="Ellipse 3" cx="49" cy="50" r="45" fill="#00B2CA"/>
<path id="Vector" d="M14.6492 85.35C9.87367 80.7377 6.06456 75.2205 3.44411 69.1203C0.823656 63.0201 -0.555656 56.4591 -0.613347 49.8201C-0.671037 43.1811 0.594048 36.5971 3.10809 30.4523C5.62214 24.3075 9.33479 18.7249 14.0294 14.0303C18.7241 9.33565 24.3067 5.62299 30.4515 3.10895C36.5963 0.594902 43.1803 -0.670183 49.8192 -0.612492C56.4582 -0.554801 63.0192 0.82451 69.1194 3.44496C75.2196 6.06541 80.7368 9.87452 85.3492 14.65C94.4571 24.0801 99.4968 36.7103 99.3829 49.8201C99.269 62.9299 94.0105 75.4706 84.7401 84.741C75.4697 94.0114 62.9291 99.2698 49.8192 99.3837C36.7094 99.4977 24.0793 94.4579 14.6492 85.35ZM78.2992 78.3C85.8048 70.7944 90.0214 60.6146 90.0214 50C90.0214 39.3855 85.8048 29.2057 78.2992 21.7C70.7935 14.1944 60.6137 9.97779 49.9992 9.97779C39.3846 9.97779 29.2048 14.1944 21.6992 21.7C14.1935 29.2057 9.97693 39.3855 9.97693 50C9.97693 60.6146 14.1935 70.7944 21.6992 78.3C29.2048 85.8057 39.3846 90.0223 49.9992 90.0223C60.6137 90.0223 70.7935 85.8057 78.2992 78.3ZM34.9992 30L74.9992 50L34.9992 70V30Z" fill="#FFB636"/>
</g>
<defs>
<clipPath id="clip0_435_161">
<rect width="100" height="100" fill="white"/>
</clipPath>
</defs>
</svg>
