<svg width="50" height="50" viewBox="0 0 50 50" fill="none" xmlns="http://www.w3.org/2000/svg">
<g id="bi:chat-square-heart-fill">
<path id="Vector" d="M6.25 0C4.5924 0 3.00269 0.65848 1.83058 1.83058C0.65848 3.00269 0 4.5924 0 6.25L0 31.25C0 32.9076 0.65848 34.4973 1.83058 35.6694C3.00269 36.8415 4.5924 37.5 6.25 37.5H14.0625C14.5476 37.5 15.0261 37.613 15.46 37.8299C15.894 38.0469 16.2714 38.3619 16.5625 38.75L22.5 46.6656C22.7911 47.0537 23.1685 47.3688 23.6025 47.5857C24.0364 47.8027 24.5149 47.9156 25 47.9156C25.4851 47.9156 25.9636 47.8027 26.3975 47.5857C26.8315 47.3688 27.2089 47.0537 27.5 46.6656L33.4375 38.75C33.7286 38.3619 34.106 38.0469 34.54 37.8299C34.9739 37.613 35.4524 37.5 35.9375 37.5H43.75C45.4076 37.5 46.9973 36.8415 48.1694 35.6694C49.3415 34.4973 50 32.9076 50 31.25V6.25C50 4.5924 49.3415 3.00269 48.1694 1.83058C46.9973 0.65848 45.4076 0 43.75 0L6.25 0ZM25 12.4781C30.2 7.13125 43.2031 16.4875 25 28.5156C6.79688 16.4844 19.8 7.13125 25 12.4781Z" fill="#FFCC4D"/>
</g>
</svg>
