<svg width="266" height="253" viewBox="0 0 266 253" fill="none" xmlns="http://www.w3.org/2000/svg">
<path d="M130.949 223.242L55.9493 251.953C52.4923 253.242 48.8595 250.605 49.0353 246.914L53.1368 166.699C53.1954 165.469 52.7853 164.238 52.0235 163.242L1.51571 100.781C-0.828036 97.9101 0.578213 93.6328 4.15243 92.6367L81.7306 71.7773C82.961 71.4258 84.0157 70.6641 84.6603 69.6094L128.488 2.34375C130.481 -0.761719 135.051 -0.761719 137.043 2.34375L180.871 69.668C181.574 70.7226 182.629 71.4844 183.801 71.8359L261.379 92.6953C264.953 93.6328 266.359 97.9688 264.016 100.84L213.567 163.301C212.805 164.297 212.395 165.527 212.453 166.758L216.555 246.973C216.731 250.664 213.098 253.301 209.641 252.012L134.641 223.301C133.41 222.832 132.121 222.832 130.949 223.242Z" fill="#FFB636"/>
</svg>
