<svg width="25" height="25" viewBox="0 0 25 25" fill="none" xmlns="http://www.w3.org/2000/svg">
<g id="bi:c-circle" clip-path="url(#clip0_375_218)">
<path id="Vector" d="M1.5625 12.5C1.5625 15.4008 2.71484 18.1828 4.76602 20.234C6.8172 22.2852 9.59919 23.4375 12.5 23.4375C15.4008 23.4375 18.1828 22.2852 20.234 20.234C22.2852 18.1828 23.4375 15.4008 23.4375 12.5C23.4375 9.59919 22.2852 6.8172 20.234 4.76602C18.1828 2.71484 15.4008 1.5625 12.5 1.5625C9.59919 1.5625 6.8172 2.71484 4.76602 4.76602C2.71484 6.8172 1.5625 9.59919 1.5625 12.5ZM25 12.5C25 15.8152 23.683 18.9946 21.3388 21.3388C18.9946 23.683 15.8152 25 12.5 25C9.18479 25 6.00537 23.683 3.66117 21.3388C1.31696 18.9946 0 15.8152 0 12.5C0 9.18479 1.31696 6.00537 3.66117 3.66117C6.00537 1.31696 9.18479 0 12.5 0C15.8152 0 18.9946 1.31696 21.3388 3.66117C23.683 6.00537 25 9.18479 25 12.5ZM12.7281 7.8C10.8344 7.8 9.71719 9.2375 9.71719 11.7094V13.3656C9.71719 15.8203 10.8156 17.2125 12.7281 17.2125C14.2578 17.2125 15.2922 16.2969 15.4297 14.9969H17.4531V15.1422C17.2969 17.4047 15.3375 18.9969 12.7188 18.9969C9.45156 18.9969 7.61094 16.9094 7.61094 13.3672V11.6906C7.61094 8.15781 9.4875 6.00625 12.7203 6.00625C15.3469 6.00625 17.3062 7.65312 17.4531 10.025V10.1625H15.4297C15.2922 8.78906 14.2297 7.8 12.7281 7.8Z" fill="#222222"/>
</g>
<defs>
<clipPath id="clip0_375_218">
<rect width="25" height="25" fill="white"/>
</clipPath>
</defs>
</svg>
