<svg width="133" height="211" viewBox="0 0 133 211" fill="none" xmlns="http://www.w3.org/2000/svg">
<path d="M132.765 66.354C132.765 105.021 102.74 111.026 102.74 147.063C102.74 165.667 83.9857 167.234 69.7115 167.234C57.3829 167.234 30.1616 162.556 30.1616 147.051C30.1616 111.032 0.652344 105.027 0.652344 66.354C0.652344 30.137 32.3895 0.777832 67.2073 0.777832C102.037 0.777832 132.765 30.137 132.765 66.354Z" fill="#FFD983"/>
<path d="M91.7323 195.104C91.7323 200.076 78.3168 210.117 66.7089 210.117C55.101 210.117 41.6855 200.076 41.6855 195.104C41.6855 190.132 55.095 192.102 66.7089 192.102C78.3168 192.102 91.7323 190.132 91.7323 195.104Z" fill="#CCD6DD"/>
<path d="M94.9751 61.748C94.4179 61.1899 93.7561 60.7471 93.0276 60.445C92.2991 60.1428 91.5182 59.9873 90.7295 59.9873C89.9408 59.9873 89.1599 60.1428 88.4314 60.445C87.7028 60.7471 87.041 61.1899 86.4838 61.748L66.7089 81.523L46.934 61.748C46.3764 61.1905 45.7145 60.7482 44.9861 60.4465C44.2576 60.1447 43.4768 59.9894 42.6883 59.9894C41.8999 59.9894 41.1191 60.1447 40.3906 60.4465C39.6622 60.7482 39.0003 61.1905 38.4427 61.748C37.8852 62.3056 37.4429 62.9675 37.1411 63.6959C36.8394 64.4244 36.6841 65.2052 36.6841 65.9937C36.6841 66.7822 36.8394 67.5629 37.1411 68.2914C37.4429 69.0199 37.8852 69.6818 38.4427 70.2393L60.7038 92.5004V156.071C60.7038 157.663 61.3364 159.191 62.4626 160.317C63.5888 161.443 65.1162 162.076 66.7089 162.076C68.3016 162.076 69.829 161.443 70.9552 160.317C72.0814 159.191 72.7141 157.663 72.7141 156.071V92.5004L94.9751 70.2393C95.5333 69.6821 95.9761 69.0203 96.2782 68.2918C96.5803 67.5633 96.7358 66.7823 96.7358 65.9937C96.7358 65.205 96.5803 64.424 96.2782 63.6955C95.9761 62.967 95.5333 62.3052 94.9751 61.748Z" fill="#FFCC4D"/>
<path d="M102.74 186.096C102.74 189.282 101.474 192.337 99.222 194.589C96.9697 196.841 93.9148 198.107 90.7295 198.107H42.6883C39.503 198.107 36.4482 196.841 34.1958 194.589C31.9434 192.337 30.6781 189.282 30.6781 186.096V150.066H102.74V186.096Z" fill="#99AAB5"/>
<path d="M30.672 192.102C29.1683 192.096 27.7213 191.527 26.6172 190.506C25.5131 189.485 24.8323 188.087 24.7093 186.588C24.5863 185.089 25.03 183.599 25.9529 182.411C26.8757 181.224 28.2105 180.426 29.6932 180.175L101.755 168.165C102.533 168.031 103.33 168.053 104.099 168.229C104.869 168.405 105.596 168.733 106.238 169.192C106.881 169.651 107.425 170.233 107.841 170.904C108.257 171.575 108.536 172.322 108.661 173.101C108.791 173.879 108.766 174.675 108.588 175.443C108.41 176.211 108.083 176.936 107.624 177.577C107.166 178.219 106.585 178.764 105.916 179.18C105.247 179.597 104.502 179.878 103.725 180.007L31.6629 192.018C31.3358 192.075 31.0042 192.103 30.672 192.102ZM30.672 168.081C29.1683 168.076 27.7213 167.506 26.6172 166.485C25.5131 165.464 24.8323 164.066 24.7093 162.567C24.5863 161.068 25.03 159.578 25.9529 158.391C26.8757 157.203 28.2105 156.406 29.6932 156.155L101.755 144.145C102.533 144.012 103.33 144.034 104.099 144.21C104.868 144.387 105.595 144.714 106.237 145.173C106.879 145.632 107.424 146.214 107.84 146.884C108.256 147.555 108.535 148.302 108.661 149.081C108.791 149.858 108.766 150.654 108.588 151.422C108.41 152.19 108.083 152.916 107.624 153.557C107.166 154.198 106.585 154.743 105.916 155.16C105.247 155.577 104.502 155.858 103.725 155.987L31.6629 167.997C31.3358 168.055 31.0042 168.083 30.672 168.081Z" fill="#CCD6DD"/>
</svg>
