<svg width="7" height="5" viewBox="0 0 7 5" fill="none" xmlns="http://www.w3.org/2000/svg">
<path id="Vector" d="M6.34361 4.47627e-07L0.332896 -7.78463e-08C0.27204 0.000190652 0.212389 0.0169748 0.160363 0.0485457C0.108337 0.0801167 0.065906 0.125278 0.0376377 0.17917C0.00936931 0.233062 -0.00366599 0.293643 -6.53974e-05 0.354393C0.00353567 0.415142 0.0236358 0.473759 0.0580725 0.523934L3.06343 4.86501C3.18799 5.045 3.48785 5.045 3.61274 4.86501L6.6181 0.523935C6.65289 0.473865 6.67329 0.415218 6.67709 0.354367C6.68088 0.293517 6.66793 0.23279 6.63964 0.178783C6.61134 0.124777 6.56879 0.0795579 6.5166 0.048038C6.46441 0.0165186 6.40458 -9.53913e-05 6.34361 4.47627e-07Z" fill="black"/>
</svg>
