<svg width="237" height="295" viewBox="0 0 237 295" fill="none" xmlns="http://www.w3.org/2000/svg">
<path d="M235.246 25.2929L211.222 1.2695C210.519 0.566371 209.582 0.273403 208.644 0.39059C207.707 0.507778 206.828 1.09372 206.359 1.91403L181.574 50.7226C180.871 51.9531 181.105 53.4179 182.101 54.414C182.687 55 183.508 55.2929 184.269 55.2929C184.797 55.2929 185.324 55.1757 185.793 54.8828L234.543 30.1562C235.363 29.6875 235.949 28.8672 236.066 27.8711C236.242 26.9336 235.89 25.9961 235.246 25.2929ZM55.363 50.7812L30.5778 1.97262C30.1091 1.15231 29.2888 0.566372 28.2927 0.449184C27.3552 0.331997 26.3591 0.624965 25.7146 1.32809L1.69113 25.3515C0.988002 26.0547 0.695033 26.9922 0.812221 27.9297C0.929408 28.8672 1.51535 29.7461 2.33566 30.2148L51.1442 55C51.613 55.2929 52.1403 55.4101 52.6677 55.4101C53.488 55.4101 54.2497 55.1172 54.8357 54.5312C55.8317 53.4765 56.0075 51.9531 55.363 50.7812ZM137.804 291.016L120.812 238.984C120.695 238.457 120.402 237.988 120.051 237.637C119.465 237.051 118.703 236.758 117.883 236.758C116.476 236.758 115.304 237.695 114.894 239.043L97.9021 291.074C97.6677 292.012 97.8435 293.008 98.4294 293.77C99.0154 294.531 99.8943 295 100.89 295H134.816C135.754 295 136.691 294.531 137.277 293.77C137.922 292.949 138.097 291.953 137.804 291.016Z" fill="#FFD469"/>
</svg>
